<svg xmlns="http://www.w3.org/2000/svg" xmlns:xlink="http://www.w3.org/1999/xlink" width="500" zoomAndPan="magnify" viewBox="0 0 375 374.999991" height="500" preserveAspectRatio="xMidYMid meet" version="1.0"><defs><g/><clipPath id="8ef9820045"><path d="M 76.777344 73 L 298.027344 73 L 298.027344 302 L 76.777344 302 Z M 76.777344 73 " clip-rule="nonzero"/></clipPath></defs><g clip-path="url(#8ef9820045)"><path fill="#4a727b" d="M 159.589844 76.703125 C 161.382812 76.253906 163.183594 75.847656 164.996094 75.484375 C 166.808594 75.121094 168.628906 74.804688 170.453125 74.53125 C 172.28125 74.257812 174.113281 74.027344 175.953125 73.84375 C 177.792969 73.65625 179.632812 73.519531 181.480469 73.421875 C 183.324219 73.328125 185.171875 73.277344 187.019531 73.273438 C 188.867188 73.265625 190.714844 73.308594 192.558594 73.390625 C 194.40625 73.476562 196.246094 73.605469 198.085938 73.78125 C 199.925781 73.953125 201.761719 74.171875 203.589844 74.4375 C 205.417969 74.699219 207.238281 75.007812 209.054688 75.359375 C 210.867188 75.710938 212.671875 76.105469 214.46875 76.546875 C 216.261719 76.984375 218.046875 77.46875 219.816406 77.996094 C 221.585938 78.519531 223.34375 79.089844 225.089844 79.703125 C 226.832031 80.3125 228.558594 80.96875 230.273438 81.664062 C 231.984375 82.359375 233.679688 83.097656 235.355469 83.875 C 237.03125 84.652344 238.6875 85.472656 240.324219 86.332031 C 241.960938 87.191406 243.574219 88.089844 245.167969 89.023438 C 246.761719 89.960938 248.328125 90.9375 249.875 91.953125 C 251.421875 92.964844 252.941406 94.015625 254.433594 95.105469 C 255.929688 96.191406 257.398438 97.316406 258.835938 98.472656 C 260.277344 99.632812 261.6875 100.824219 263.070312 102.054688 C 264.453125 103.28125 265.804688 104.542969 267.125 105.835938 C 268.445312 107.128906 269.734375 108.453125 270.988281 109.808594 C 272.246094 111.164062 273.46875 112.550781 274.65625 113.964844 C 275.847656 115.382812 277 116.824219 278.121094 118.296875 C 279.238281 119.769531 280.324219 121.265625 281.371094 122.789062 C 282.414062 124.3125 283.425781 125.863281 284.394531 127.4375 C 285.367188 129.007812 286.300781 130.605469 287.191406 132.222656 C 288.085938 133.84375 288.941406 135.480469 289.753906 137.140625 C 290.570312 138.800781 291.34375 140.480469 292.074219 142.179688 C 292.808594 143.878906 293.5 145.59375 294.148438 147.324219 C 294.796875 149.054688 295.40625 150.800781 295.96875 152.5625 C 296.535156 154.324219 297.054688 156.097656 297.535156 157.882812 C 297.710938 158.542969 297.886719 159.214844 298.054688 159.898438 L 296.308594 160.507812 C 296.132812 159.789062 295.949219 159.074219 295.757812 158.355469 C 295.28125 156.585938 294.765625 154.828125 294.207031 153.082031 C 293.644531 151.339844 293.042969 149.609375 292.398438 147.890625 C 291.753906 146.175781 291.070312 144.476562 290.339844 142.796875 C 289.613281 141.113281 288.84375 139.449219 288.035156 137.804688 C 287.226562 136.160156 286.378906 134.539062 285.488281 132.933594 C 284.601562 131.332031 283.675781 129.75 282.707031 128.195312 C 281.742188 126.636719 280.738281 125.105469 279.699219 123.59375 C 278.660156 122.085938 277.582031 120.605469 276.46875 119.148438 C 275.355469 117.695312 274.207031 116.265625 273.023438 114.867188 C 271.839844 113.46875 270.625 112.097656 269.375 110.757812 C 268.125 109.421875 266.84375 108.113281 265.527344 106.835938 C 264.214844 105.558594 262.871094 104.316406 261.496094 103.105469 C 260.121094 101.894531 258.714844 100.714844 257.285156 99.574219 C 255.851562 98.433594 254.390625 97.324219 252.90625 96.253906 C 251.417969 95.183594 249.90625 94.152344 248.371094 93.15625 C 246.832031 92.160156 245.273438 91.199219 243.6875 90.28125 C 242.105469 89.359375 240.5 88.480469 238.871094 87.636719 C 237.242188 86.796875 235.597656 85.996094 233.929688 85.234375 C 232.265625 84.476562 230.582031 83.753906 228.878906 83.078125 C 227.179688 82.398438 225.460938 81.765625 223.730469 81.167969 C 221.996094 80.574219 220.25 80.023438 218.492188 79.515625 C 216.730469 79.007812 214.960938 78.542969 213.179688 78.121094 C 211.394531 77.699219 209.605469 77.324219 207.804688 76.988281 C 206.003906 76.65625 204.195312 76.367188 202.378906 76.121094 C 200.566406 75.875 198.746094 75.675781 196.921875 75.519531 C 195.09375 75.363281 193.269531 75.25 191.4375 75.183594 C 189.609375 75.117188 187.777344 75.097656 185.945312 75.121094 C 184.113281 75.144531 182.285156 75.210938 180.457031 75.324219 C 178.628906 75.4375 176.804688 75.59375 174.984375 75.796875 C 173.164062 76 171.351562 76.246094 169.542969 76.539062 C 167.734375 76.828125 165.933594 77.164062 164.144531 77.542969 C 162.351562 77.925781 160.570312 78.347656 158.800781 78.8125 C 159.074219 78.117188 159.34375 77.421875 159.589844 76.707031 Z M 78.523438 214.738281 C 78.671875 215.324219 78.816406 215.910156 78.976562 216.496094 C 79.453125 218.273438 79.96875 220.035156 80.53125 221.785156 C 81.09375 223.535156 81.699219 225.269531 82.34375 226.988281 C 82.992188 228.707031 83.679688 230.410156 84.410156 232.097656 C 85.140625 233.78125 85.910156 235.449219 86.722656 237.097656 C 87.535156 238.746094 88.386719 240.375 89.277344 241.980469 C 90.171875 243.585938 91.101562 245.167969 92.070312 246.730469 C 93.039062 248.289062 94.046875 249.828125 95.089844 251.335938 C 96.136719 252.847656 97.21875 254.332031 98.335938 255.789062 C 99.453125 257.25 100.605469 258.679688 101.792969 260.078125 C 102.980469 261.480469 104.199219 262.851562 105.457031 264.195312 C 106.710938 265.535156 107.996094 266.84375 109.316406 268.125 C 110.636719 269.402344 111.984375 270.648438 113.367188 271.859375 C 114.746094 273.070312 116.15625 274.246094 117.59375 275.390625 C 119.03125 276.53125 120.496094 277.640625 121.988281 278.710938 C 123.480469 279.78125 124.996094 280.8125 126.539062 281.808594 C 128.082031 282.804688 129.648438 283.765625 131.238281 284.683594 C 132.828125 285.601562 134.441406 286.480469 136.074219 287.320312 C 137.707031 288.164062 139.359375 288.960938 141.03125 289.71875 C 142.703125 290.480469 144.390625 291.195312 146.101562 291.871094 C 147.808594 292.546875 149.53125 293.183594 151.269531 293.773438 C 153.007812 294.363281 154.757812 294.914062 156.523438 295.417969 C 158.289062 295.921875 160.066406 296.382812 161.851562 296.800781 C 163.640625 297.21875 165.4375 297.59375 167.246094 297.921875 C 169.050781 298.253906 170.863281 298.539062 172.683594 298.777344 C 174.503906 299.019531 176.328125 299.214844 178.160156 299.367188 C 179.988281 299.515625 181.820312 299.621094 183.65625 299.683594 C 185.492188 299.742188 187.328125 299.757812 189.164062 299.730469 C 190.996094 299.699219 192.832031 299.625 194.664062 299.507812 C 196.496094 299.386719 198.324219 299.222656 200.148438 299.015625 C 201.972656 298.804688 203.789062 298.550781 205.601562 298.253906 C 207.414062 297.953125 209.214844 297.613281 211.011719 297.222656 C 212.804688 296.835938 214.589844 296.40625 216.363281 295.929688 C 216.078125 296.628906 215.800781 297.332031 215.542969 298.042969 C 213.75 298.5 211.945312 298.914062 210.128906 299.28125 C 208.316406 299.652344 206.492188 299.976562 204.660156 300.257812 C 202.832031 300.539062 200.996094 300.773438 199.152344 300.964844 C 197.308594 301.15625 195.464844 301.304688 193.613281 301.40625 C 191.765625 301.507812 189.914062 301.5625 188.0625 301.574219 C 186.210938 301.585938 184.359375 301.550781 182.511719 301.46875 C 180.660156 301.390625 178.8125 301.265625 176.96875 301.097656 C 175.125 300.929688 173.285156 300.714844 171.449219 300.457031 C 169.617188 300.195312 167.789062 299.894531 165.972656 299.546875 C 164.152344 299.199219 162.34375 298.804688 160.542969 298.371094 C 158.742188 297.933594 156.953125 297.453125 155.179688 296.929688 C 153.402344 296.40625 151.636719 295.839844 149.890625 295.230469 C 148.140625 294.621094 146.40625 293.96875 144.691406 293.277344 C 142.972656 292.582031 141.273438 291.847656 139.589844 291.070312 C 137.910156 290.292969 136.246094 289.476562 134.605469 288.621094 C 132.964844 287.761719 131.34375 286.863281 129.746094 285.929688 C 128.148438 284.992188 126.574219 284.015625 125.023438 283.003906 C 123.472656 281.992188 121.945312 280.941406 120.445312 279.851562 C 118.945312 278.765625 117.472656 277.640625 116.03125 276.480469 C 114.585938 275.324219 113.167969 274.128906 111.78125 272.898438 C 110.394531 271.671875 109.039062 270.410156 107.714844 269.117188 C 106.386719 267.820312 105.09375 266.496094 103.832031 265.136719 C 102.570312 263.78125 101.34375 262.390625 100.152344 260.976562 C 98.957031 259.558594 97.800781 258.113281 96.675781 256.636719 C 95.554688 255.164062 94.464844 253.664062 93.417969 252.136719 C 92.367188 250.609375 91.355469 249.058594 90.378906 247.480469 C 89.40625 245.90625 88.46875 244.308594 87.570312 242.683594 C 86.675781 241.0625 85.820312 239.421875 85 237.757812 C 84.183594 236.09375 83.410156 234.410156 82.671875 232.710938 C 81.9375 231.007812 81.246094 229.289062 80.59375 227.554688 C 79.941406 225.820312 79.332031 224.070312 78.765625 222.304688 C 78.203125 220.539062 77.679688 218.761719 77.199219 216.972656 C 77.054688 216.433594 76.917969 215.890625 76.777344 215.351562 Z M 78.523438 214.738281 " fill-opacity="1" fill-rule="evenodd"/></g><g fill="#000000" fill-opacity="1"><g transform="translate(68.16787, 194.00823)"><g><path d="M 7.21875 -22.15625 L 7.21875 0 L 2.859375 0 L 2.859375 -22.15625 Z M 7.21875 -22.15625 "/></g></g></g><g fill="#000000" fill-opacity="1"><g transform="translate(102.320294, 194.00823)"><g><path d="M 14.6875 -16.796875 C 12.757812 -17.859375 11.082031 -18.390625 9.65625 -18.390625 C 8.695312 -18.390625 7.953125 -18.195312 7.421875 -17.8125 C 6.890625 -17.4375 6.625 -16.863281 6.625 -16.09375 C 6.625 -15.394531 7.007812 -14.78125 7.78125 -14.25 C 8.550781 -13.71875 9.578125 -13.210938 10.859375 -12.734375 C 11.898438 -12.347656 12.789062 -11.910156 13.53125 -11.421875 C 14.28125 -10.929688 14.898438 -10.253906 15.390625 -9.390625 C 15.878906 -8.523438 16.125 -7.429688 16.125 -6.109375 C 16.125 -4.960938 15.828125 -3.898438 15.234375 -2.921875 C 14.648438 -1.953125 13.785156 -1.179688 12.640625 -0.609375 C 11.492188 -0.046875 10.128906 0.234375 8.546875 0.234375 C 7.222656 0.234375 5.90625 0.0390625 4.59375 -0.34375 C 3.289062 -0.738281 2.082031 -1.335938 0.96875 -2.140625 L 2.890625 -5.53125 C 3.648438 -4.96875 4.519531 -4.503906 5.5 -4.140625 C 6.488281 -3.785156 7.375 -3.609375 8.15625 -3.609375 C 9.082031 -3.609375 9.882812 -3.800781 10.5625 -4.1875 C 11.25 -4.582031 11.59375 -5.222656 11.59375 -6.109375 C 11.59375 -7.253906 10.515625 -8.25 8.359375 -9.09375 C 7.097656 -9.59375 6.046875 -10.070312 5.203125 -10.53125 C 4.359375 -10.988281 3.628906 -11.648438 3.015625 -12.515625 C 2.410156 -13.378906 2.109375 -14.460938 2.109375 -15.765625 C 2.109375 -17.671875 2.734375 -19.207031 3.984375 -20.375 C 5.242188 -21.539062 6.914062 -22.171875 9 -22.265625 C 10.644531 -22.265625 12.019531 -22.078125 13.125 -21.703125 C 14.226562 -21.335938 15.300781 -20.8125 16.34375 -20.125 Z M 14.6875 -16.796875 "/></g></g></g><g fill="#000000" fill-opacity="1"><g transform="translate(143.933063, 194.00823)"><g><path d="M 7.15625 -13.15625 L 7.828125 -14 L 15.046875 -22.15625 L 20.703125 -22.15625 L 11.5625 -12.21875 L 20.734375 0 L 15.203125 0 L 8.359375 -9.453125 L 7.28125 -8.359375 L 7.28125 0 L 2.859375 0 L 2.859375 -22.15625 L 7.28125 -22.15625 L 7.28125 -14.265625 Z M 7.15625 -13.15625 "/></g></g></g><g fill="#000000" fill-opacity="1"><g transform="translate(189.185769, 194.00823)"><g><path d="M 22.8125 -22.15625 L 22.8125 0.90625 L 22.6875 0.90625 L 7.1875 -13.09375 L 7.28125 0 L 2.859375 0 L 2.859375 -23.015625 L 3.046875 -23.015625 L 18.5 -8.8125 L 18.421875 -22.15625 Z M 22.8125 -22.15625 "/></g></g></g><g fill="#000000" fill-opacity="1"><g transform="translate(238.920689, 194.00823)"><g><path d="M 2.859375 -22.15625 L 9.484375 -22.15625 C 12.304688 -22.15625 14.628906 -21.609375 16.453125 -20.515625 C 18.285156 -19.421875 19.617188 -18.003906 20.453125 -16.265625 C 21.285156 -14.523438 21.703125 -12.664062 21.703125 -10.6875 C 21.703125 -8.5625 21.195312 -6.6875 20.1875 -5.0625 C 19.1875 -3.4375 17.835938 -2.1875 16.140625 -1.3125 C 14.453125 -0.4375 12.59375 0 10.5625 0 L 2.859375 0 Z M 9.8125 -4.21875 C 12.082031 -4.21875 13.878906 -4.796875 15.203125 -5.953125 C 16.523438 -7.117188 17.1875 -8.796875 17.1875 -10.984375 C 17.1875 -12.742188 16.816406 -14.144531 16.078125 -15.1875 C 15.347656 -16.238281 14.492188 -16.960938 13.515625 -17.359375 C 12.546875 -17.765625 11.632812 -17.96875 10.78125 -17.96875 L 7.21875 -17.96875 L 7.21875 -4.21875 Z M 9.8125 -4.21875 "/></g></g></g><g fill="#000000" fill-opacity="1"><g transform="translate(286.188882, 194.00823)"><g><path d="M 14.8125 0 L 10.140625 -7.046875 L 7.21875 -7.046875 L 7.21875 0 L 2.859375 0 L 2.859375 -22.15625 L 9.5625 -22.15625 C 12.3125 -22.15625 14.441406 -21.484375 15.953125 -20.140625 C 17.472656 -18.804688 18.234375 -16.988281 18.234375 -14.6875 C 18.234375 -13.320312 17.945312 -12.039062 17.375 -10.84375 C 16.800781 -9.65625 15.925781 -8.71875 14.75 -8.03125 L 19.890625 0 Z M 7.21875 -11.25 L 10.328125 -11.25 C 11.503906 -11.25 12.363281 -11.59375 12.90625 -12.28125 C 13.445312 -12.976562 13.71875 -13.726562 13.71875 -14.53125 C 13.71875 -15.332031 13.488281 -16.097656 13.03125 -16.828125 C 12.570312 -17.566406 11.679688 -17.9375 10.359375 -17.9375 L 7.21875 -17.9375 Z M 7.21875 -11.25 "/></g></g></g><g fill="#4a727b" fill-opacity="1"><g transform="translate(170.404373, 228.682574)"><g><path d="M 7.640625 0.359375 L 5.75 -4.4375 L 3.625 0.375 L 0.40625 -7.984375 L 1.90625 -7.984375 L 3.78125 -2.625 L 5.125 -6.046875 L 4.34375 -7.984375 L 5.609375 -7.984375 L 7.671875 -2.78125 L 9.40625 -7.984375 L 10.78125 -7.984375 Z M 7.640625 0.359375 "/></g></g></g><g fill="#4a727b" fill-opacity="1"><g transform="translate(185.98673, 228.682574)"><g><path d="M 6.4375 -8.03125 L 6.4375 -6.796875 L 2.390625 -6.796875 L 2.390625 -4.65625 L 5.984375 -4.65625 L 5.984375 -3.421875 L 2.390625 -3.421875 L 2.390625 -1.234375 L 6.578125 -1.234375 L 6.578125 0 L 1.109375 0 L 1.109375 -8.03125 Z M 6.4375 -8.03125 "/></g></g></g><g fill="#4a727b" fill-opacity="1"><g transform="translate(197.647518, 228.682574)"><g><path d="M 4.90625 -4.1875 C 5.351562 -4.007812 5.703125 -3.757812 5.953125 -3.4375 C 6.210938 -3.113281 6.34375 -2.738281 6.34375 -2.3125 C 6.34375 -1.53125 6.078125 -0.945312 5.546875 -0.5625 C 5.023438 -0.1875 4.378906 0 3.609375 0 L 1.109375 0 L 1.109375 -8.03125 L 3.296875 -8.03125 C 4.140625 -8.03125 4.789062 -7.859375 5.25 -7.515625 C 5.71875 -7.171875 5.953125 -6.671875 5.953125 -6.015625 C 5.953125 -5.597656 5.859375 -5.234375 5.671875 -4.921875 C 5.492188 -4.617188 5.238281 -4.375 4.90625 -4.1875 Z M 2.390625 -4.609375 L 3.515625 -4.609375 C 3.878906 -4.609375 4.15625 -4.710938 4.34375 -4.921875 C 4.53125 -5.140625 4.625 -5.410156 4.625 -5.734375 C 4.625 -6.085938 4.507812 -6.351562 4.28125 -6.53125 C 4.0625 -6.707031 3.753906 -6.796875 3.359375 -6.796875 L 2.390625 -6.796875 Z M 3.546875 -1.1875 C 3.984375 -1.1875 4.335938 -1.28125 4.609375 -1.46875 C 4.878906 -1.65625 5.015625 -1.929688 5.015625 -2.296875 C 5.015625 -2.679688 4.863281 -2.957031 4.5625 -3.125 C 4.269531 -3.289062 3.90625 -3.375 3.46875 -3.375 L 2.390625 -3.375 L 2.390625 -1.1875 Z M 3.546875 -1.1875 "/></g></g></g><g fill="#000000" fill-opacity="1"><g transform="translate(135.459063, 243.682573)"><g><path d="M 1.109375 -8.03125 L 3.390625 -8.03125 C 4.390625 -8.03125 5.21875 -7.832031 5.875 -7.4375 C 6.539062 -7.039062 7.023438 -6.53125 7.328125 -5.90625 C 7.628906 -5.28125 7.78125 -4.613281 7.78125 -3.90625 C 7.78125 -3.125 7.597656 -2.4375 7.234375 -1.84375 C 6.867188 -1.25 6.378906 -0.789062 5.765625 -0.46875 C 5.160156 -0.15625 4.492188 0 3.765625 0 L 1.109375 0 Z M 3.546875 -1.234375 C 4.117188 -1.234375 4.625 -1.335938 5.0625 -1.546875 C 5.5 -1.765625 5.835938 -2.082031 6.078125 -2.5 C 6.328125 -2.914062 6.453125 -3.414062 6.453125 -4 C 6.453125 -4.625 6.316406 -5.144531 6.046875 -5.5625 C 5.773438 -5.988281 5.429688 -6.300781 5.015625 -6.5 C 4.609375 -6.707031 4.179688 -6.8125 3.734375 -6.8125 L 2.390625 -6.8125 L 2.390625 -1.234375 Z M 3.546875 -1.234375 "/></g></g></g><g fill="#000000" fill-opacity="1"><g transform="translate(148.254463, 243.682573)"><g><path d="M 6.4375 -8.03125 L 6.4375 -6.796875 L 2.390625 -6.796875 L 2.390625 -4.65625 L 5.984375 -4.65625 L 5.984375 -3.421875 L 2.390625 -3.421875 L 2.390625 -1.234375 L 6.578125 -1.234375 L 6.578125 0 L 1.109375 0 L 1.109375 -8.03125 Z M 6.4375 -8.03125 "/></g></g></g><g fill="#000000" fill-opacity="1"><g transform="translate(159.915251, 243.682573)"><g><path d="M 7.59375 -8.03125 L 4 0.375 L 0.40625 -8.03125 L 1.9375 -8.03125 L 4.0625 -2.75 L 6.09375 -8.03125 Z M 7.59375 -8.03125 "/></g></g></g><g fill="#4a727b" fill-opacity="1"><g transform="translate(172.314529, 243.682573)"><g><path d="M 6.4375 -8.03125 L 6.4375 -6.796875 L 2.390625 -6.796875 L 2.390625 -4.65625 L 5.984375 -4.65625 L 5.984375 -3.421875 L 2.390625 -3.421875 L 2.390625 -1.234375 L 6.578125 -1.234375 L 6.578125 0 L 1.109375 0 L 1.109375 -8.03125 Z M 6.4375 -8.03125 "/></g></g></g><g fill="#4a727b" fill-opacity="1"><g transform="translate(183.975317, 243.682573)"><g><path d="M 2.390625 -8.03125 L 2.390625 -1.234375 L 6.359375 -1.234375 L 6.359375 0 L 1.109375 0 L 1.109375 -8.03125 Z M 2.390625 -8.03125 "/></g></g></g><g fill="#4a727b" fill-opacity="1"><g transform="translate(195.327664, 243.682573)"><g><path d="M 0.609375 -4 C 0.609375 -4.738281 0.789062 -5.421875 1.15625 -6.046875 C 1.519531 -6.679688 2.015625 -7.1875 2.640625 -7.5625 C 3.273438 -7.9375 3.960938 -8.125 4.703125 -8.125 C 5.441406 -8.125 6.125 -7.9375 6.75 -7.5625 C 7.382812 -7.1875 7.890625 -6.679688 8.265625 -6.046875 C 8.640625 -5.410156 8.828125 -4.726562 8.828125 -4 C 8.828125 -3.257812 8.640625 -2.578125 8.265625 -1.953125 C 7.890625 -1.328125 7.382812 -0.828125 6.75 -0.453125 C 6.125 -0.0859375 5.441406 0.09375 4.703125 0.09375 C 3.960938 0.09375 3.273438 -0.0859375 2.640625 -0.453125 C 2.015625 -0.816406 1.519531 -1.3125 1.15625 -1.9375 C 0.789062 -2.5625 0.609375 -3.25 0.609375 -4 Z M 1.9375 -4 C 1.9375 -3.476562 2.0625 -3 2.3125 -2.5625 C 2.5625 -2.132812 2.898438 -1.789062 3.328125 -1.53125 C 3.753906 -1.269531 4.226562 -1.140625 4.75 -1.140625 C 5.25 -1.140625 5.707031 -1.265625 6.125 -1.515625 C 6.550781 -1.773438 6.882812 -2.125 7.125 -2.5625 C 7.375 -3 7.5 -3.476562 7.5 -4 C 7.5 -4.519531 7.375 -5 7.125 -5.4375 C 6.875 -5.882812 6.535156 -6.238281 6.109375 -6.5 C 5.679688 -6.757812 5.210938 -6.890625 4.703125 -6.890625 C 4.191406 -6.890625 3.722656 -6.757812 3.296875 -6.5 C 2.878906 -6.238281 2.546875 -5.882812 2.296875 -5.4375 C 2.054688 -5 1.9375 -4.519531 1.9375 -4 Z M 1.9375 -4 "/></g></g></g><g fill="#4a727b" fill-opacity="1"><g transform="translate(209.158537, 243.682573)"><g><path d="M 3.375 -8.03125 C 4.289062 -8.03125 5.003906 -7.800781 5.515625 -7.34375 C 6.023438 -6.882812 6.28125 -6.253906 6.28125 -5.453125 C 6.28125 -4.984375 6.1875 -4.546875 6 -4.140625 C 5.820312 -3.742188 5.53125 -3.421875 5.125 -3.171875 C 4.71875 -2.921875 4.191406 -2.796875 3.546875 -2.796875 L 2.390625 -2.796875 L 2.390625 0 L 1.109375 0 L 1.109375 -8.03125 Z M 3.546875 -4.03125 C 3.898438 -4.03125 4.1875 -4.101562 4.40625 -4.25 C 4.625 -4.40625 4.78125 -4.585938 4.875 -4.796875 C 4.96875 -5.015625 5.015625 -5.222656 5.015625 -5.421875 C 5.015625 -5.765625 4.90625 -6.078125 4.6875 -6.359375 C 4.46875 -6.648438 4.097656 -6.796875 3.578125 -6.796875 L 2.390625 -6.796875 L 2.390625 -4.03125 Z M 3.546875 -4.03125 "/></g></g></g><g fill="#4a727b" fill-opacity="1"><g transform="translate(220.301594, 243.682573)"><g><path d="M 6.4375 -8.03125 L 6.4375 -6.796875 L 2.390625 -6.796875 L 2.390625 -4.65625 L 5.984375 -4.65625 L 5.984375 -3.421875 L 2.390625 -3.421875 L 2.390625 -1.234375 L 6.578125 -1.234375 L 6.578125 0 L 1.109375 0 L 1.109375 -8.03125 Z M 6.4375 -8.03125 "/></g></g></g><g fill="#4a727b" fill-opacity="1"><g transform="translate(231.962379, 243.682573)"><g><path d="M 5.5 0 L 3.6875 -2.796875 L 2.390625 -2.796875 L 2.390625 0 L 1.109375 0 L 1.109375 -8.03125 L 3.359375 -8.03125 C 4.253906 -8.03125 4.972656 -7.800781 5.515625 -7.34375 C 6.054688 -6.882812 6.328125 -6.253906 6.328125 -5.453125 C 6.328125 -4.953125 6.222656 -4.488281 6.015625 -4.0625 C 5.804688 -3.644531 5.476562 -3.320312 5.03125 -3.09375 L 6.984375 0 Z M 2.390625 -4.03125 L 3.546875 -4.03125 C 4.054688 -4.03125 4.425781 -4.171875 4.65625 -4.453125 C 4.894531 -4.734375 5.015625 -5.050781 5.015625 -5.40625 C 5.015625 -5.613281 4.96875 -5.820312 4.875 -6.03125 C 4.789062 -6.238281 4.640625 -6.414062 4.421875 -6.5625 C 4.210938 -6.71875 3.929688 -6.796875 3.578125 -6.796875 L 2.390625 -6.796875 Z M 2.390625 -4.03125 "/></g></g></g><g fill="#4a727b" fill-opacity="1"><g transform="translate(243.752024, 243.682573)"><g/></g></g><g fill="#4a727b" fill-opacity="1"><g transform="translate(153.763602, 134.892207)"><g><path d="M 1.621094 -16.226562 L 4.859375 -19.449219 L 4.859375 24.414062 C 4.859375 28.757812 0.03125 27.878906 0.03125 26.046875 C 0.832031 26.019531 1.621094 25.488281 1.621094 24.414062 Z M 1.621094 -16.226562 "/></g></g></g><g fill="#4a727b" fill-opacity="1"><g transform="translate(160.768291, 134.892207)"><g><path d="M 1.621094 -25.941406 C 1.621094 -32.421875 11.351562 -32.421875 11.351562 -25.941406 L 11.351562 0 L 1.621094 0 L 1.621094 -3.238281 L 8.113281 -3.238281 L 8.113281 -25.941406 C 8.113281 -28.089844 4.859375 -28.089844 4.859375 -25.941406 L 4.859375 -6.476562 L 1.621094 -9.703125 Z M 1.621094 -25.941406 "/></g></g></g><g fill="#4a727b" fill-opacity="1"><g transform="translate(172.64639, 134.892207)"><g><path d="M 4.859375 -29.179688 L 7.160156 -26.878906 L 4.859375 -24.59375 L 2.574219 -26.878906 Z M 3.238281 -19.480469 L 6.476562 -22.6875 L 6.476562 0 L -1.542969 0 L -1.542969 -3.238281 L 3.238281 -3.238281 Z M 3.238281 -19.480469 "/></g></g></g><g fill="#4a727b" fill-opacity="1"><g transform="translate(179.65108, 134.892207)"><g><path d="M 3.238281 -29.167969 C 3.238281 -35.660156 12.972656 -35.660156 12.972656 -29.167969 L 12.972656 -16.179688 L 9.730469 -12.957031 L 9.730469 -29.167969 C 9.730469 -31.332031 6.476562 -31.332031 6.476562 -29.167969 L 6.476562 -9.71875 L 12.972656 -9.71875 L 12.972656 22.703125 C 12.972656 29.179688 3.238281 29.179688 3.238281 22.703125 L 3.238281 0 L -1.542969 0 L -1.542969 -3.238281 L 6.476562 -3.238281 L 6.476562 22.703125 C 6.476562 24.867188 9.730469 24.867188 9.730469 22.703125 L 9.730469 -6.476562 L 3.238281 -6.476562 Z M 3.238281 -29.167969 "/></g></g></g><g fill="#4a727b" fill-opacity="1"><g transform="translate(193.148607, 134.892207)"><g><path d="M 19.449219 -22.6875 L 19.449219 0 L -1.542969 0 L -1.542969 -3.238281 L 3.238281 -3.238281 L 3.238281 -12.984375 L 6.476562 -16.210938 L 6.476562 -3.238281 L 9.730469 -3.238281 L 9.730469 -16.226562 L 12.972656 -19.449219 L 12.972656 -3.238281 L 16.210938 -3.238281 L 16.210938 -19.480469 Z M 19.449219 -22.6875 "/></g></g></g><g fill="#4a727b" fill-opacity="1"><g transform="translate(214.743252, 134.892207)"><g><path d="M 4.859375 -32.421875 L 1.621094 -29.195312 L 1.621094 25.941406 L 4.859375 25.941406 Z M 4.859375 -32.421875 "/></g></g></g><g fill="#4a727b" fill-opacity="1"><g transform="translate(156.821379, 267.099068)"><g><path d="M 4.265625 -5.328125 L 4.265625 -4.515625 L 1.59375 -4.515625 L 1.59375 -3.09375 L 3.984375 -3.09375 L 3.984375 -2.265625 L 1.59375 -2.265625 L 1.59375 -0.828125 L 4.375 -0.828125 L 4.375 0 L 0.734375 0 L 0.734375 -5.328125 Z M 4.265625 -5.328125 "/></g></g></g><g fill="#4a727b" fill-opacity="1"><g transform="translate(164.572142, 267.099068)"><g><path d="M 3.53125 -4.25 C 3.070312 -4.488281 2.664062 -4.609375 2.3125 -4.609375 C 2.039062 -4.609375 1.828125 -4.546875 1.671875 -4.421875 C 1.523438 -4.304688 1.453125 -4.148438 1.453125 -3.953125 C 1.453125 -3.753906 1.546875 -3.585938 1.734375 -3.453125 C 1.929688 -3.316406 2.203125 -3.179688 2.546875 -3.046875 C 2.816406 -2.953125 3.046875 -2.84375 3.234375 -2.71875 C 3.421875 -2.601562 3.570312 -2.441406 3.6875 -2.234375 C 3.8125 -2.035156 3.875 -1.78125 3.875 -1.46875 C 3.875 -1.1875 3.800781 -0.929688 3.65625 -0.703125 C 3.519531 -0.472656 3.316406 -0.285156 3.046875 -0.140625 C 2.773438 -0.00390625 2.457031 0.0625 2.09375 0.0625 C 1.769531 0.0625 1.453125 0.015625 1.140625 -0.078125 C 0.828125 -0.179688 0.550781 -0.320312 0.3125 -0.5 L 0.6875 -1.171875 C 0.863281 -1.035156 1.078125 -0.921875 1.328125 -0.828125 C 1.578125 -0.742188 1.804688 -0.703125 2.015625 -0.703125 C 2.273438 -0.703125 2.5 -0.757812 2.6875 -0.875 C 2.882812 -1 2.984375 -1.191406 2.984375 -1.453125 C 2.984375 -1.660156 2.898438 -1.832031 2.734375 -1.96875 C 2.578125 -2.101562 2.351562 -2.226562 2.0625 -2.34375 C 1.757812 -2.457031 1.503906 -2.566406 1.296875 -2.671875 C 1.097656 -2.785156 0.925781 -2.941406 0.78125 -3.140625 C 0.644531 -3.335938 0.578125 -3.585938 0.578125 -3.890625 C 0.578125 -4.316406 0.722656 -4.660156 1.015625 -4.921875 C 1.304688 -5.191406 1.695312 -5.335938 2.1875 -5.359375 C 2.539062 -5.359375 2.847656 -5.316406 3.109375 -5.234375 C 3.378906 -5.160156 3.628906 -5.050781 3.859375 -4.90625 Z M 3.53125 -4.25 "/></g></g></g><g fill="#4a727b" fill-opacity="1"><g transform="translate(171.766142, 267.099068)"><g><path d="M 3.921875 -5.328125 L 3.921875 -4.515625 L 2.546875 -4.515625 L 2.546875 0 L 1.6875 0 L 1.6875 -4.515625 L 0.359375 -4.515625 L 0.359375 -5.328125 Z M 3.921875 -5.328125 "/></g></g></g><g fill="#4a727b" fill-opacity="1"><g transform="translate(178.967463, 267.099068)"><g><path d="M 0.734375 -5.328125 L 2.25 -5.328125 C 2.914062 -5.328125 3.46875 -5.195312 3.90625 -4.9375 C 4.34375 -4.675781 4.660156 -4.335938 4.859375 -3.921875 C 5.066406 -3.503906 5.171875 -3.0625 5.171875 -2.59375 C 5.171875 -2.070312 5.046875 -1.613281 4.796875 -1.21875 C 4.554688 -0.832031 4.234375 -0.53125 3.828125 -0.3125 C 3.421875 -0.101562 2.976562 0 2.5 0 L 0.734375 0 Z M 2.359375 -0.828125 C 2.734375 -0.828125 3.066406 -0.894531 3.359375 -1.03125 C 3.648438 -1.175781 3.875 -1.382812 4.03125 -1.65625 C 4.195312 -1.9375 4.28125 -2.269531 4.28125 -2.65625 C 4.28125 -3.070312 4.191406 -3.421875 4.015625 -3.703125 C 3.835938 -3.984375 3.609375 -4.1875 3.328125 -4.3125 C 3.054688 -4.445312 2.773438 -4.515625 2.484375 -4.515625 L 1.59375 -4.515625 L 1.59375 -0.828125 Z M 2.359375 -0.828125 "/></g></g></g><g fill="#4a727b" fill-opacity="1"><g transform="translate(187.472792, 267.099068)"><g/></g></g><g fill="#4a727b" fill-opacity="1"><g transform="translate(192.747406, 267.099068)"><g><path d="M 3.765625 -0.828125 L 3.765625 0 L 0.390625 0 L 0.65625 -0.265625 C 1.144531 -0.742188 1.523438 -1.132812 1.796875 -1.4375 C 2.078125 -1.75 2.304688 -2.0625 2.484375 -2.375 C 2.671875 -2.6875 2.765625 -2.976562 2.765625 -3.25 C 2.765625 -3.519531 2.679688 -3.722656 2.515625 -3.859375 C 2.359375 -4.003906 2.160156 -4.078125 1.921875 -4.078125 C 1.660156 -4.078125 1.457031 -4.003906 1.3125 -3.859375 C 1.175781 -3.710938 1.109375 -3.546875 1.109375 -3.359375 C 1.109375 -3.054688 1.203125 -2.804688 1.390625 -2.609375 L 0.875 -2.125 C 0.695312 -2.226562 0.550781 -2.40625 0.4375 -2.65625 C 0.332031 -2.90625 0.28125 -3.132812 0.28125 -3.34375 C 0.28125 -3.613281 0.347656 -3.867188 0.484375 -4.109375 C 0.628906 -4.347656 0.835938 -4.535156 1.109375 -4.671875 C 1.378906 -4.816406 1.695312 -4.890625 2.0625 -4.890625 C 2.375 -4.890625 2.648438 -4.816406 2.890625 -4.671875 C 3.128906 -4.535156 3.316406 -4.347656 3.453125 -4.109375 C 3.585938 -3.867188 3.65625 -3.609375 3.65625 -3.328125 C 3.65625 -3.046875 3.585938 -2.769531 3.453125 -2.5 C 3.328125 -2.226562 3.175781 -1.972656 3 -1.734375 C 2.820312 -1.503906 2.570312 -1.203125 2.25 -0.828125 Z M 3.765625 -0.828125 "/></g></g></g><g fill="#4a727b" fill-opacity="1"><g transform="translate(199.780234, 267.099068)"><g><path d="M 2.296875 0.015625 C 1.898438 0.015625 1.546875 -0.078125 1.234375 -0.265625 C 0.929688 -0.460938 0.691406 -0.742188 0.515625 -1.109375 C 0.335938 -1.484375 0.25 -1.925781 0.25 -2.4375 C 0.25 -3.269531 0.429688 -3.882812 0.796875 -4.28125 C 1.160156 -4.6875 1.660156 -4.890625 2.296875 -4.890625 C 2.679688 -4.890625 3.023438 -4.789062 3.328125 -4.59375 C 3.640625 -4.40625 3.882812 -4.125 4.0625 -3.75 C 4.238281 -3.382812 4.328125 -2.945312 4.328125 -2.4375 C 4.328125 -1.914062 4.238281 -1.46875 4.0625 -1.09375 C 3.882812 -0.726562 3.640625 -0.453125 3.328125 -0.265625 C 3.023438 -0.078125 2.679688 0.015625 2.296875 0.015625 Z M 2.28125 -0.796875 C 2.664062 -0.796875 2.953125 -0.945312 3.140625 -1.25 C 3.335938 -1.550781 3.4375 -1.957031 3.4375 -2.46875 C 3.4375 -2.957031 3.335938 -3.347656 3.140625 -3.640625 C 2.953125 -3.929688 2.664062 -4.070312 2.28125 -4.0625 C 1.90625 -4.070312 1.617188 -3.925781 1.421875 -3.625 C 1.234375 -3.332031 1.140625 -2.9375 1.140625 -2.4375 C 1.140625 -1.9375 1.234375 -1.535156 1.421875 -1.234375 C 1.617188 -0.941406 1.90625 -0.796875 2.28125 -0.796875 Z M 2.28125 -0.796875 "/></g></g></g><g fill="#4a727b" fill-opacity="1"><g transform="translate(207.28924, 267.099068)"><g><path d="M 3.765625 -0.828125 L 3.765625 0 L 0.390625 0 L 0.65625 -0.265625 C 1.144531 -0.742188 1.523438 -1.132812 1.796875 -1.4375 C 2.078125 -1.75 2.304688 -2.0625 2.484375 -2.375 C 2.671875 -2.6875 2.765625 -2.976562 2.765625 -3.25 C 2.765625 -3.519531 2.679688 -3.722656 2.515625 -3.859375 C 2.359375 -4.003906 2.160156 -4.078125 1.921875 -4.078125 C 1.660156 -4.078125 1.457031 -4.003906 1.3125 -3.859375 C 1.175781 -3.710938 1.109375 -3.546875 1.109375 -3.359375 C 1.109375 -3.054688 1.203125 -2.804688 1.390625 -2.609375 L 0.875 -2.125 C 0.695312 -2.226562 0.550781 -2.40625 0.4375 -2.65625 C 0.332031 -2.90625 0.28125 -3.132812 0.28125 -3.34375 C 0.28125 -3.613281 0.347656 -3.867188 0.484375 -4.109375 C 0.628906 -4.347656 0.835938 -4.535156 1.109375 -4.671875 C 1.378906 -4.816406 1.695312 -4.890625 2.0625 -4.890625 C 2.375 -4.890625 2.648438 -4.816406 2.890625 -4.671875 C 3.128906 -4.535156 3.316406 -4.347656 3.453125 -4.109375 C 3.585938 -3.867188 3.65625 -3.609375 3.65625 -3.328125 C 3.65625 -3.046875 3.585938 -2.769531 3.453125 -2.5 C 3.328125 -2.226562 3.175781 -1.972656 3 -1.734375 C 2.820312 -1.503906 2.570312 -1.203125 2.25 -0.828125 Z M 3.765625 -0.828125 "/></g></g></g><g fill="#4a727b" fill-opacity="1"><g transform="translate(214.322068, 267.099068)"><g><path d="M 2.234375 -3.0625 C 2.566406 -3.019531 2.84375 -2.878906 3.0625 -2.640625 C 3.28125 -2.410156 3.390625 -2.066406 3.390625 -1.609375 C 3.390625 -1.273438 3.3125 -0.984375 3.15625 -0.734375 C 3 -0.484375 2.789062 -0.285156 2.53125 -0.140625 C 2.269531 -0.00390625 1.984375 0.0625 1.671875 0.0625 C 1.429688 0.0625 1.1875 0.015625 0.9375 -0.078125 C 0.695312 -0.179688 0.503906 -0.3125 0.359375 -0.46875 L 0.78125 -1.1875 C 0.875 -1.070312 1 -0.972656 1.15625 -0.890625 C 1.320312 -0.804688 1.488281 -0.765625 1.65625 -0.765625 C 1.894531 -0.765625 2.097656 -0.84375 2.265625 -1 C 2.429688 -1.164062 2.515625 -1.382812 2.515625 -1.65625 C 2.515625 -1.90625 2.4375 -2.101562 2.28125 -2.25 C 2.132812 -2.40625 1.9375 -2.484375 1.6875 -2.484375 C 1.5625 -2.484375 1.457031 -2.472656 1.375 -2.453125 C 1.289062 -2.441406 1.195312 -2.421875 1.09375 -2.390625 L 1.0625 -2.421875 L 2.03125 -4.015625 L 0.6875 -4.015625 L 0.6875 -4.84375 L 3.265625 -4.84375 Z M 2.234375 -3.0625 "/></g></g></g></svg>